%TF.GenerationSoftware,KiCad,Pcbnew,(6.0.1)*%
%TF.CreationDate,2022-02-08T10:08:30+01:00*%
%TF.ProjectId,CaricoFittizioStrumentato,43617269-636f-4466-9974-74697a696f53,rev?*%
%TF.SameCoordinates,Original*%
%TF.FileFunction,Profile,NP*%
%FSLAX46Y46*%
G04 Gerber Fmt 4.6, Leading zero omitted, Abs format (unit mm)*
G04 Created by KiCad (PCBNEW (6.0.1)) date 2022-02-08 10:08:30*
%MOMM*%
%LPD*%
G01*
G04 APERTURE LIST*
%TA.AperFunction,Profile*%
%ADD10C,0.100000*%
%TD*%
%TA.AperFunction,Profile*%
%ADD11C,0.120000*%
%TD*%
G04 APERTURE END LIST*
D10*
X108381800Y-124117100D02*
X108381800Y-64236600D01*
X130149600Y-125603000D02*
X134772400Y-125603000D01*
X134772400Y-125603000D02*
X134772400Y-125907800D01*
X134772400Y-125907800D02*
X130149600Y-125907800D01*
X130149600Y-125907800D02*
X130149600Y-125603000D01*
X109880400Y-62738006D02*
X152356325Y-62737998D01*
X152349205Y-185496199D02*
X109873281Y-185496198D01*
X152349199Y-125913372D02*
X152349200Y-125603000D01*
X153854916Y-64236595D02*
G75*
G03*
X152356325Y-62737998I-1498572J25D01*
G01*
X153847798Y-127411969D02*
G75*
G03*
X152349199Y-125913372I-1498604J-7D01*
G01*
X143306800Y-125603000D02*
X140309600Y-125603000D01*
X140309600Y-125603000D02*
X140309600Y-125907800D01*
X140309600Y-125907800D02*
X143306800Y-125907800D01*
X143306800Y-125907800D02*
X143306800Y-125603000D01*
X153854916Y-64236595D02*
X153847799Y-124104397D01*
X108374668Y-183997597D02*
G75*
G03*
X109873281Y-185496198I1498602J1D01*
G01*
X117957600Y-125603000D02*
X114681000Y-125603000D01*
X114681000Y-125603000D02*
X114681000Y-125907800D01*
X114681000Y-125907800D02*
X117957600Y-125907800D01*
X117957600Y-125907800D02*
X117957600Y-125603000D01*
X119253000Y-125577600D02*
X122453400Y-125577600D01*
X122453400Y-125577600D02*
X122453400Y-125907800D01*
X122453400Y-125907800D02*
X119253000Y-125907800D01*
X119253000Y-125907800D02*
X119253000Y-125577600D01*
X153847805Y-183997591D02*
X153847798Y-127411969D01*
X109880400Y-125615700D02*
X109880398Y-125926071D01*
X108381802Y-127424672D02*
X108374668Y-183997597D01*
X109880400Y-62738006D02*
G75*
G03*
X108381800Y-64236600I-16J-1498584D01*
G01*
X128371600Y-125603000D02*
X123469400Y-125603000D01*
X123469400Y-125603000D02*
X123469400Y-125907800D01*
X123469400Y-125907800D02*
X128371600Y-125907800D01*
X128371600Y-125907800D02*
X128371600Y-125603000D01*
X108381800Y-124117100D02*
G75*
G03*
X109880400Y-125615700I1498601J1D01*
G01*
X151511000Y-125603000D02*
X149123400Y-125603000D01*
X149123400Y-125603000D02*
X149123400Y-125933200D01*
X149123400Y-125933200D02*
X151511000Y-125933200D01*
X151511000Y-125933200D02*
X151511000Y-125603000D01*
X113690400Y-125603000D02*
X110744000Y-125603000D01*
X110744000Y-125603000D02*
X110744000Y-125907800D01*
X110744000Y-125907800D02*
X113690400Y-125907800D01*
X113690400Y-125907800D02*
X113690400Y-125603000D01*
X152349200Y-125603000D02*
G75*
G03*
X153847799Y-124104397I3J1498596D01*
G01*
X139344400Y-125603000D02*
X135737600Y-125603000D01*
X135737600Y-125603000D02*
X135737600Y-125907800D01*
X135737600Y-125907800D02*
X139344400Y-125907800D01*
X139344400Y-125907800D02*
X139344400Y-125603000D01*
X152349205Y-185496199D02*
G75*
G03*
X153847805Y-183997591I6J1498594D01*
G01*
X109880398Y-125926071D02*
G75*
G03*
X108381802Y-127424672I10J-1498606D01*
G01*
X144500600Y-125603000D02*
X148183600Y-125603000D01*
X148183600Y-125603000D02*
X148183600Y-125907800D01*
X148183600Y-125907800D02*
X144500600Y-125907800D01*
X144500600Y-125907800D02*
X144500600Y-125603000D01*
D11*
X131953000Y-77850600D02*
X135687800Y-77850600D01*
D10*
X129946400Y-77850600D02*
X126287800Y-77850600D01*
D11*
X131953000Y-78841600D02*
X131953000Y-77850600D01*
D10*
X126287800Y-71450600D02*
X135687800Y-71450600D01*
X126287800Y-77850600D02*
X126287800Y-71450600D01*
X135687800Y-71450600D02*
X135687800Y-77850600D01*
D11*
X129946400Y-78841600D02*
X131953000Y-78841600D01*
X129946400Y-77850600D02*
X129946400Y-78841600D01*
M02*
