%TF.GenerationSoftware,KiCad,Pcbnew,(6.0.1)*%
%TF.CreationDate,2022-02-08T10:08:30+01:00*%
%TF.ProjectId,CaricoFittizioStrumentato,43617269-636f-4466-9974-74697a696f53,rev?*%
%TF.SameCoordinates,Original*%
%TF.FileFunction,Paste,Top*%
%TF.FilePolarity,Positive*%
%FSLAX46Y46*%
G04 Gerber Fmt 4.6, Leading zero omitted, Abs format (unit mm)*
G04 Created by KiCad (PCBNEW (6.0.1)) date 2022-02-08 10:08:30*
%MOMM*%
%LPD*%
G01*
G04 APERTURE LIST*
G04 Aperture macros list*
%AMRoundRect*
0 Rectangle with rounded corners*
0 $1 Rounding radius*
0 $2 $3 $4 $5 $6 $7 $8 $9 X,Y pos of 4 corners*
0 Add a 4 corners polygon primitive as box body*
4,1,4,$2,$3,$4,$5,$6,$7,$8,$9,$2,$3,0*
0 Add four circle primitives for the rounded corners*
1,1,$1+$1,$2,$3*
1,1,$1+$1,$4,$5*
1,1,$1+$1,$6,$7*
1,1,$1+$1,$8,$9*
0 Add four rect primitives between the rounded corners*
20,1,$1+$1,$2,$3,$4,$5,0*
20,1,$1+$1,$4,$5,$6,$7,0*
20,1,$1+$1,$6,$7,$8,$9,0*
20,1,$1+$1,$8,$9,$2,$3,0*%
G04 Aperture macros list end*
%ADD10RoundRect,0.250000X0.625000X-0.312500X0.625000X0.312500X-0.625000X0.312500X-0.625000X-0.312500X0*%
%ADD11RoundRect,0.150000X-0.587500X-0.150000X0.587500X-0.150000X0.587500X0.150000X-0.587500X0.150000X0*%
%ADD12RoundRect,0.250000X-1.425000X0.362500X-1.425000X-0.362500X1.425000X-0.362500X1.425000X0.362500X0*%
%ADD13RoundRect,0.250000X-1.450000X0.312500X-1.450000X-0.312500X1.450000X-0.312500X1.450000X0.312500X0*%
%ADD14RoundRect,0.250000X-0.625000X0.312500X-0.625000X-0.312500X0.625000X-0.312500X0.625000X0.312500X0*%
%ADD15RoundRect,0.250000X0.312500X0.625000X-0.312500X0.625000X-0.312500X-0.625000X0.312500X-0.625000X0*%
%ADD16RoundRect,0.250000X1.425000X-0.362500X1.425000X0.362500X-1.425000X0.362500X-1.425000X-0.362500X0*%
%ADD17RoundRect,0.250000X-1.075000X0.375000X-1.075000X-0.375000X1.075000X-0.375000X1.075000X0.375000X0*%
%ADD18R,2.000000X1.500000*%
%ADD19R,2.000000X3.800000*%
%ADD20RoundRect,0.250000X-0.312500X-0.625000X0.312500X-0.625000X0.312500X0.625000X-0.312500X0.625000X0*%
%ADD21RoundRect,0.250000X0.700000X-0.275000X0.700000X0.275000X-0.700000X0.275000X-0.700000X-0.275000X0*%
%ADD22R,0.900000X2.000000*%
%ADD23R,2.000000X0.900000*%
%ADD24R,5.000000X5.000000*%
%ADD25R,3.000000X5.000000*%
%ADD26RoundRect,0.250000X-0.700000X0.275000X-0.700000X-0.275000X0.700000X-0.275000X0.700000X0.275000X0*%
G04 APERTURE END LIST*
D10*
X122936001Y-120024701D03*
X122936001Y-117099701D03*
X133781800Y-177306700D03*
X133781800Y-174381700D03*
D11*
X141124700Y-163540400D03*
X141124700Y-165440400D03*
X142999700Y-164490400D03*
D12*
X117500401Y-97997501D03*
X117500401Y-103922501D03*
D13*
X141986000Y-173503500D03*
X141986000Y-177778500D03*
D14*
X122885200Y-90790300D03*
X122885200Y-93715300D03*
D15*
X119547099Y-162936002D03*
X116622099Y-162936002D03*
D16*
X145745201Y-103922501D03*
X145745201Y-97997501D03*
D15*
X146801300Y-108635800D03*
X143876300Y-108635800D03*
D14*
X115824000Y-130490500D03*
X115824000Y-133415500D03*
D10*
X135839201Y-93608701D03*
X135839201Y-90683701D03*
D17*
X114173001Y-117213001D03*
X114173001Y-120013001D03*
D18*
X128981600Y-178042600D03*
D19*
X122681600Y-175742600D03*
D18*
X128981600Y-175742600D03*
X128981600Y-173442600D03*
D17*
X118821201Y-117162201D03*
X118821201Y-119962201D03*
D14*
X115824000Y-137856500D03*
X115824000Y-140781500D03*
D10*
X136372600Y-138927300D03*
X136372600Y-136002300D03*
D20*
X121346501Y-113837801D03*
X124271501Y-113837801D03*
D21*
X121625901Y-110180401D03*
X121625901Y-107030401D03*
D12*
X121945401Y-97997501D03*
X121945401Y-103922501D03*
D20*
X128153701Y-131236801D03*
X131078701Y-131236801D03*
X116622103Y-166619000D03*
X119547103Y-166619000D03*
X116404201Y-106979801D03*
X119329201Y-106979801D03*
D17*
X144043401Y-118384401D03*
X144043401Y-121184401D03*
D16*
X141198601Y-103922502D03*
X141198601Y-97997502D03*
D10*
X126441201Y-93634101D03*
X126441201Y-90709101D03*
D20*
X116378801Y-110180201D03*
X119303801Y-110180201D03*
D22*
X136050199Y-141024800D03*
X134780199Y-141024800D03*
X133510199Y-141024800D03*
X132240199Y-141024800D03*
X130970199Y-141024800D03*
X129700199Y-141024800D03*
X128430199Y-141024800D03*
X127160199Y-141024800D03*
X125890199Y-141024800D03*
X124620199Y-141024800D03*
X123350199Y-141024800D03*
X122080199Y-141024800D03*
X120810199Y-141024800D03*
X119540199Y-141024800D03*
D23*
X118540199Y-143809800D03*
X118540199Y-145079800D03*
X118540199Y-146349800D03*
X118540199Y-147619800D03*
X118540199Y-148889800D03*
X118540199Y-150159800D03*
X118540199Y-151429800D03*
X118540199Y-152699800D03*
X118540199Y-153969800D03*
X118540199Y-155239800D03*
D22*
X119540199Y-158024800D03*
X120810199Y-158024800D03*
X122080199Y-158024800D03*
X123350199Y-158024800D03*
X124620199Y-158024800D03*
X125890199Y-158024800D03*
X127160199Y-158024800D03*
X128430199Y-158024800D03*
X129700199Y-158024800D03*
X130970199Y-158024800D03*
X132240199Y-158024800D03*
X133510199Y-158024800D03*
X134780199Y-158024800D03*
X136050199Y-158024800D03*
D24*
X128550199Y-148524800D03*
D20*
X116393501Y-113837801D03*
X119318501Y-113837801D03*
X143876301Y-115082401D03*
X146801301Y-115082401D03*
X123353101Y-131236801D03*
X126278101Y-131236801D03*
X138923301Y-115057001D03*
X141848301Y-115057001D03*
D14*
X141986000Y-167472900D03*
X141986000Y-170397900D03*
D10*
X118668800Y-177205100D03*
X118668800Y-174280100D03*
X137490200Y-177306700D03*
X137490200Y-174381700D03*
D25*
X130987800Y-81356200D03*
D10*
X139852401Y-121218501D03*
X139852401Y-118293501D03*
D15*
X146826700Y-111379000D03*
X143901700Y-111379000D03*
D26*
X141528801Y-108249601D03*
X141528801Y-111399601D03*
D17*
X148640801Y-118353001D03*
X148640801Y-121153001D03*
M02*
