M48
; DRILL file {KiCad (6.0.1)} date Tue Feb  8 10:08:36 2022
; FORMAT={-:-/ absolute / metric / decimal}
; #@! TF.CreationDate,2022-02-08T10:08:36+01:00
; #@! TF.GenerationSoftware,Kicad,Pcbnew,(6.0.1)
; #@! TF.FileFunction,Plated,1,2,PTH
FMAT,2
METRIC
; #@! TA.AperFunction,Plated,PTH,ViaDrill
T1C0.400
; #@! TA.AperFunction,Plated,PTH,ComponentDrill
T2C0.500
; #@! TA.AperFunction,Plated,PTH,ComponentDrill
T3C0.650
; #@! TA.AperFunction,Plated,PTH,ComponentDrill
T4C0.900
; #@! TA.AperFunction,Plated,PTH,ComponentDrill
T5C1.000
; #@! TA.AperFunction,Plated,PTH,ComponentDrill
T6C1.300
; #@! TA.AperFunction,Plated,PTH,ComponentDrill
T7C3.200
; #@! TA.AperFunction,Plated,PTH,ComponentDrill
T8C3.300
%
G90
G05
T1
X109.601Y-124.333
X111.481Y-124.384
X111.608Y-156.337
X114.097Y-126.543
X116.18Y-124.409
X116.535Y-162.916
X118.872Y-120.04
X120.117Y-124.435
X121.564Y-166.141
X121.564Y-167.767
X121.564Y-170.688
X121.564Y-172.187
X122.682Y-175.743
X122.911Y-120.091
X122.961Y-128.778
X123.419Y-153.873
X124.612Y-141.732
X125.247Y-124.435
X125.984Y-175.743
X126.035Y-143.281
X126.873Y-127.102
X126.898Y-129.362
X127.16Y-138.235
X127.284Y-131.237
X128.143Y-128.295
X128.168Y-134.899
X128.499Y-139.217
X129.261Y-134.163
X129.337Y-124.435
X129.337Y-127.127
X129.997Y-148.514
X130.302Y-134.925
X130.581Y-128.321
X131.064Y-131.293
X131.597Y-127.152
X131.597Y-129.388
X131.75Y-143.281
X132.715Y-124.435
X134.417Y-129.362
X134.772Y-143.281
X134.772Y-148.539
X135.204Y-126.517
X135.661Y-155.245
X136.042Y-157.988
X136.296Y-153.924
X136.373Y-136.042
X136.728Y-124.435
X138.074Y-129.362
X138.1Y-157.988
X138.836Y-156.464
X140.056Y-128.346
X140.284Y-158.09
X141.529Y-111.4
X141.859Y-124.485
X141.986Y-148.59
X142.037Y-153.975
X142.037Y-170.459
X142.088Y-143.231
X143.876Y-108.636
X143.942Y-124.511
X145.567Y-139.065
X145.847Y-124.536
X148.692Y-126.492
X151.79Y-124.587
T2
X110.376Y-181.229
X111.079Y-179.532
X111.079Y-182.926
X112.776Y-178.829
X112.776Y-183.629
X114.473Y-179.532
X114.473Y-182.926
X115.176Y-181.229
X141.237Y-131.445
X141.94Y-129.748
X141.94Y-133.142
X143.637Y-129.045
X143.637Y-133.845
X145.334Y-129.748
X145.334Y-133.142
X146.037Y-131.445
X146.444Y-181.229
X147.147Y-179.532
X147.147Y-182.926
X148.844Y-178.829
X148.844Y-183.629
X150.541Y-179.532
X150.541Y-182.926
X151.244Y-181.229
T3
X111.709Y-146.304
X111.709Y-153.949
X111.709Y-148.844
X111.709Y-151.384
X114.656Y-155.194
X114.656Y-150.114
X114.656Y-152.654
X114.681Y-145.009
X114.681Y-147.574
X119.532Y-135.174
X120.802Y-160.828
X120.802Y-138.12
X122.072Y-163.825
X122.098Y-135.199
X123.317Y-138.12
X123.342Y-160.828
X124.612Y-135.199
X124.612Y-163.825
X125.882Y-160.828
X127.152Y-163.825
X129.692Y-163.825
X130.937Y-138.12
X132.232Y-135.199
X133.528Y-160.828
X133.528Y-138.12
X134.772Y-163.83
T4
X126.467Y-97.937
X126.467Y-109.952
X136.627Y-97.937
X136.627Y-109.952
T5
X112.37Y-130.663
X112.37Y-133.203
X112.395Y-138.049
X112.395Y-140.589
X112.395Y-161.29
X112.395Y-163.83
X112.395Y-166.37
X112.395Y-168.91
X112.395Y-171.45
X112.395Y-173.99
X112.827Y-107.747
X112.827Y-110.287
X112.827Y-112.827
X124.409Y-167.635
X126.467Y-103.957
X126.949Y-167.635
X127.229Y-121.839
X129.489Y-167.635
X131.166Y-90.698
X131.166Y-117.597
X132.029Y-167.635
X134.569Y-167.635
X135.255Y-121.864
X136.195Y-103.983
X137.109Y-167.635
X148.692Y-150.52
X148.692Y-153.06
X148.692Y-155.6
X148.692Y-158.14
X148.717Y-138.049
X148.717Y-140.589
X148.717Y-143.129
X148.717Y-145.669
X148.717Y-169.794
X148.717Y-172.334
X148.768Y-162.509
X148.768Y-165.049
T6
X114.884Y-85.449
X114.884Y-95.449
X119.884Y-90.449
T7
X112.776Y-181.229
X143.637Y-131.445
X148.844Y-181.229
T8
X123.663Y-74.651G85X124.063Y-74.651
G05
X137.913Y-74.651G85X138.313Y-74.651
G05
T0
M30
