%TF.GenerationSoftware,KiCad,Pcbnew,(6.0.1)*%
%TF.CreationDate,2022-02-08T10:08:30+01:00*%
%TF.ProjectId,CaricoFittizioStrumentato,43617269-636f-4466-9974-74697a696f53,rev?*%
%TF.SameCoordinates,Original*%
%TF.FileFunction,Soldermask,Top*%
%TF.FilePolarity,Negative*%
%FSLAX46Y46*%
G04 Gerber Fmt 4.6, Leading zero omitted, Abs format (unit mm)*
G04 Created by KiCad (PCBNEW (6.0.1)) date 2022-02-08 10:08:30*
%MOMM*%
%LPD*%
G01*
G04 APERTURE LIST*
G04 Aperture macros list*
%AMRoundRect*
0 Rectangle with rounded corners*
0 $1 Rounding radius*
0 $2 $3 $4 $5 $6 $7 $8 $9 X,Y pos of 4 corners*
0 Add a 4 corners polygon primitive as box body*
4,1,4,$2,$3,$4,$5,$6,$7,$8,$9,$2,$3,0*
0 Add four circle primitives for the rounded corners*
1,1,$1+$1,$2,$3*
1,1,$1+$1,$4,$5*
1,1,$1+$1,$6,$7*
1,1,$1+$1,$8,$9*
0 Add four rect primitives between the rounded corners*
20,1,$1+$1,$2,$3,$4,$5,0*
20,1,$1+$1,$4,$5,$6,$7,0*
20,1,$1+$1,$6,$7,$8,$9,0*
20,1,$1+$1,$8,$9,$2,$3,0*%
%AMFreePoly0*
4,1,22,0.500000,-0.750000,0.000000,-0.750000,0.000000,-0.745033,-0.079941,-0.743568,-0.215256,-0.701293,-0.333266,-0.622738,-0.424486,-0.514219,-0.481581,-0.384460,-0.499164,-0.250000,-0.500000,-0.250000,-0.500000,0.250000,-0.499164,0.250000,-0.499963,0.256109,-0.478152,0.396186,-0.417904,0.524511,-0.324060,0.630769,-0.204165,0.706417,-0.067858,0.745374,0.000000,0.744959,0.000000,0.750000,
0.500000,0.750000,0.500000,-0.750000,0.500000,-0.750000,$1*%
%AMFreePoly1*
4,1,20,0.000000,0.744959,0.073905,0.744508,0.209726,0.703889,0.328688,0.626782,0.421226,0.519385,0.479903,0.390333,0.500000,0.250000,0.500000,-0.250000,0.499851,-0.262216,0.476331,-0.402017,0.414519,-0.529596,0.319384,-0.634700,0.198574,-0.708877,0.061801,-0.746166,0.000000,-0.745033,0.000000,-0.750000,-0.500000,-0.750000,-0.500000,0.750000,0.000000,0.750000,0.000000,0.744959,
0.000000,0.744959,$1*%
%AMFreePoly2*
4,1,5,2.500000,-2.250000,-2.500000,-2.250000,-2.500000,2.250000,2.500000,2.250000,2.500000,-2.250000,2.500000,-2.250000,$1*%
G04 Aperture macros list end*
%ADD10C,0.800000*%
%ADD11C,6.400000*%
%ADD12RoundRect,0.250000X0.625000X-0.312500X0.625000X0.312500X-0.625000X0.312500X-0.625000X-0.312500X0*%
%ADD13R,1.000000X1.000000*%
%ADD14RoundRect,0.150000X-0.587500X-0.150000X0.587500X-0.150000X0.587500X0.150000X-0.587500X0.150000X0*%
%ADD15R,1.800000X1.800000*%
%ADD16O,1.800000X1.800000*%
%ADD17RoundRect,0.250000X-1.425000X0.362500X-1.425000X-0.362500X1.425000X-0.362500X1.425000X0.362500X0*%
%ADD18RoundRect,0.250000X-1.450000X0.312500X-1.450000X-0.312500X1.450000X-0.312500X1.450000X0.312500X0*%
%ADD19C,3.000000*%
%ADD20C,1.950000*%
%ADD21FreePoly0,90.000000*%
%ADD22FreePoly1,90.000000*%
%ADD23RoundRect,0.250000X-0.625000X0.312500X-0.625000X-0.312500X0.625000X-0.312500X0.625000X0.312500X0*%
%ADD24RoundRect,0.250000X0.312500X0.625000X-0.312500X0.625000X-0.312500X-0.625000X0.312500X-0.625000X0*%
%ADD25RoundRect,0.250000X1.425000X-0.362500X1.425000X0.362500X-1.425000X0.362500X-1.425000X-0.362500X0*%
%ADD26R,1.700000X1.700000*%
%ADD27O,1.700000X1.700000*%
%ADD28C,2.000000*%
%ADD29RoundRect,0.250000X-1.075000X0.375000X-1.075000X-0.375000X1.075000X-0.375000X1.075000X0.375000X0*%
%ADD30R,2.000000X1.500000*%
%ADD31R,2.000000X3.800000*%
%ADD32RoundRect,0.250000X-0.312500X-0.625000X0.312500X-0.625000X0.312500X0.625000X-0.312500X0.625000X0*%
%ADD33RoundRect,0.250000X0.700000X-0.275000X0.700000X0.275000X-0.700000X0.275000X-0.700000X-0.275000X0*%
%ADD34R,0.900000X2.000000*%
%ADD35R,2.000000X0.900000*%
%ADD36R,5.000000X5.000000*%
%ADD37FreePoly2,0.000000*%
%ADD38R,3.000000X5.000000*%
%ADD39RoundRect,0.250000X-0.700000X0.275000X-0.700000X-0.275000X0.700000X-0.275000X0.700000X0.275000X0*%
G04 APERTURE END LIST*
D10*
X111078944Y-182926056D03*
X110376000Y-181229000D03*
X111078944Y-179531944D03*
D11*
X112776000Y-181229000D03*
D10*
X114473056Y-182926056D03*
X114473056Y-179531944D03*
X112776000Y-178829000D03*
X115176000Y-181229000D03*
X112776000Y-183629000D03*
D12*
X122936001Y-120024701D03*
X122936001Y-117099701D03*
D13*
X111709200Y-146303999D03*
D12*
X133781800Y-177306700D03*
X133781800Y-174381700D03*
D13*
X114681001Y-145008598D03*
X123342401Y-160827799D03*
X119532402Y-135173800D03*
D14*
X141124700Y-163540400D03*
X141124700Y-165440400D03*
X142999700Y-164490400D03*
D15*
X136626601Y-97937403D03*
D16*
X126466601Y-97937403D03*
D17*
X117500401Y-97997501D03*
X117500401Y-103922501D03*
D13*
X114655600Y-155194000D03*
D18*
X141986000Y-173503500D03*
X141986000Y-177778500D03*
D13*
X111709201Y-153949398D03*
D19*
X114884200Y-90449400D03*
D20*
X114884200Y-95449400D03*
X119884200Y-90449400D03*
X114884200Y-85449400D03*
D13*
X114655602Y-152653999D03*
D21*
X122961400Y-126415800D03*
D22*
X122961400Y-125115800D03*
D13*
X111709203Y-151383999D03*
D23*
X122885200Y-90790300D03*
X122885200Y-93715300D03*
D24*
X119547099Y-162936002D03*
X116622099Y-162936002D03*
D25*
X145745201Y-103922501D03*
X145745201Y-97997501D03*
D10*
X143637000Y-129045000D03*
X141237000Y-131445000D03*
X145334056Y-129747944D03*
X145334056Y-133142056D03*
X143637000Y-133845000D03*
X141939944Y-129747944D03*
X141939944Y-133142056D03*
X146037000Y-131445000D03*
D11*
X143637000Y-131445000D03*
D24*
X146801300Y-108635800D03*
X143876300Y-108635800D03*
D13*
X132232399Y-135199203D03*
D26*
X148717000Y-138049000D03*
D27*
X148717000Y-140589000D03*
X148717000Y-143129000D03*
X148717000Y-145669000D03*
D13*
X130937002Y-138120202D03*
D28*
X131165601Y-117597001D03*
D23*
X115824000Y-130490500D03*
X115824000Y-133415500D03*
D13*
X123316998Y-138120200D03*
D21*
X135255000Y-126415800D03*
D22*
X135255000Y-125115800D03*
D12*
X135839201Y-93608701D03*
X135839201Y-90683701D03*
D29*
X114173001Y-117213001D03*
X114173001Y-120013001D03*
D30*
X128981600Y-178042600D03*
D31*
X122681600Y-175742600D03*
D30*
X128981600Y-175742600D03*
X128981600Y-173442600D03*
D29*
X118821201Y-117162201D03*
X118821201Y-119962201D03*
D23*
X115824000Y-137856500D03*
X115824000Y-140781500D03*
D12*
X136372600Y-138927300D03*
X136372600Y-136002300D03*
D32*
X121346501Y-113837801D03*
X124271501Y-113837801D03*
D13*
X122097801Y-135199200D03*
D33*
X121625901Y-110180401D03*
X121625901Y-107030401D03*
D28*
X135255001Y-121864201D03*
D13*
X124612401Y-163825003D03*
X114681001Y-147573999D03*
D17*
X121945401Y-97997501D03*
X121945401Y-103922501D03*
D32*
X128153701Y-131236801D03*
X131078701Y-131236801D03*
X116622103Y-166619000D03*
X119547103Y-166619000D03*
X116404201Y-106979801D03*
X119329201Y-106979801D03*
D10*
X148844000Y-178829000D03*
X147146944Y-179531944D03*
X146444000Y-181229000D03*
X147146944Y-182926056D03*
X150541056Y-182926056D03*
X150541056Y-179531944D03*
X148844000Y-183629000D03*
X151244000Y-181229000D03*
D11*
X148844000Y-181229000D03*
D26*
X112370000Y-133203000D03*
D27*
X112370000Y-130663000D03*
D26*
X112395000Y-140589000D03*
D27*
X112395000Y-138049000D03*
D29*
X144043401Y-118384401D03*
X144043401Y-121184401D03*
D13*
X134772400Y-163830000D03*
D25*
X141198601Y-103922502D03*
X141198601Y-97997502D03*
D21*
X139852400Y-126415800D03*
D22*
X139852400Y-125115800D03*
D26*
X148717000Y-169794000D03*
D27*
X148717000Y-172334000D03*
D28*
X127228601Y-121838801D03*
D21*
X114173000Y-126405400D03*
D22*
X114173000Y-125105400D03*
D21*
X148666200Y-126390400D03*
D22*
X148666200Y-125090400D03*
D28*
X136194799Y-103982602D03*
D26*
X148691600Y-150520400D03*
D27*
X148691600Y-153060400D03*
X148691600Y-155600400D03*
X148691600Y-158140400D03*
D13*
X133527803Y-138120201D03*
D12*
X126441201Y-93634101D03*
X126441201Y-90709101D03*
D32*
X116378801Y-110180201D03*
X119303801Y-110180201D03*
D34*
X136050199Y-141024800D03*
X134780199Y-141024800D03*
X133510199Y-141024800D03*
X132240199Y-141024800D03*
X130970199Y-141024800D03*
X129700199Y-141024800D03*
X128430199Y-141024800D03*
X127160199Y-141024800D03*
X125890199Y-141024800D03*
X124620199Y-141024800D03*
X123350199Y-141024800D03*
X122080199Y-141024800D03*
X120810199Y-141024800D03*
X119540199Y-141024800D03*
D35*
X118540199Y-143809800D03*
X118540199Y-145079800D03*
X118540199Y-146349800D03*
X118540199Y-147619800D03*
X118540199Y-148889800D03*
X118540199Y-150159800D03*
X118540199Y-151429800D03*
X118540199Y-152699800D03*
X118540199Y-153969800D03*
X118540199Y-155239800D03*
D34*
X119540199Y-158024800D03*
X120810199Y-158024800D03*
X122080199Y-158024800D03*
X123350199Y-158024800D03*
X124620199Y-158024800D03*
X125890199Y-158024800D03*
X127160199Y-158024800D03*
X128430199Y-158024800D03*
X129700199Y-158024800D03*
X130970199Y-158024800D03*
X132240199Y-158024800D03*
X133510199Y-158024800D03*
X134780199Y-158024800D03*
X136050199Y-158024800D03*
D36*
X128550199Y-148524800D03*
D32*
X116393501Y-113837801D03*
X119318501Y-113837801D03*
D13*
X120802402Y-138120201D03*
D28*
X126466602Y-103957202D03*
X131165601Y-90698401D03*
D32*
X143876301Y-115082401D03*
X146801301Y-115082401D03*
X123353101Y-131236801D03*
X126278101Y-131236801D03*
D13*
X120802401Y-160827802D03*
D32*
X138923301Y-115057001D03*
X141848301Y-115057001D03*
D26*
X112395000Y-161290000D03*
D27*
X112395000Y-163830000D03*
X112395000Y-166370000D03*
X112395000Y-168910000D03*
X112395000Y-171450000D03*
X112395000Y-173990000D03*
D23*
X141986000Y-167472900D03*
X141986000Y-170397900D03*
D12*
X118668800Y-177205100D03*
X118668800Y-174280100D03*
D13*
X133527802Y-160827801D03*
D12*
X137490200Y-177306700D03*
X137490200Y-174381700D03*
D37*
X123862800Y-74650600D03*
X138112800Y-74650600D03*
D38*
X130987800Y-81356200D03*
D12*
X139852401Y-121218501D03*
X139852401Y-118293501D03*
D13*
X125882401Y-160827800D03*
D24*
X146826700Y-111379000D03*
X143901700Y-111379000D03*
D13*
X122072400Y-163825002D03*
X127152401Y-163825001D03*
D26*
X148767800Y-165049200D03*
D27*
X148767800Y-162509200D03*
D26*
X124408800Y-167635402D03*
D27*
X126948800Y-167635402D03*
X129488800Y-167635402D03*
X132028800Y-167635402D03*
X134568800Y-167635402D03*
X137108800Y-167635402D03*
D39*
X141528801Y-108249601D03*
X141528801Y-111399601D03*
D13*
X129692399Y-163825000D03*
D26*
X112826800Y-112826800D03*
D27*
X112826800Y-110286800D03*
X112826800Y-107746800D03*
D15*
X126466602Y-109951602D03*
D16*
X136626602Y-109951602D03*
D13*
X124612400Y-135199200D03*
X114655602Y-150113999D03*
D29*
X148640801Y-118353001D03*
X148640801Y-121153001D03*
D13*
X111709202Y-148844001D03*
M02*
